{"title":"Barbie Fairytopia - Magic of the Rainbow (2007)DVDRip.Dual Audio","uid":5773037,"size":837359002,"categoryP":"video","categoryS":"movies","magnet":"?xt=urn:btih:ca50783297e21189f8fb15ef12c2498833223d44&amp;dn=Barbie+Fairytopia+-+Magic+of+the+Rainbow+%282007%29DVDRip.Dual+Audio&amp;tr=udp%3A%2F%2Ftracker.openbittorrent.com%3A80&amp;tr=udp%3A%2F%2Fopen.demonii.com%3A1337&amp;tr=udp%3A%2F%2Ftracker.coppersurfer.tk%3A6969&amp;tr=udp%3A%2F%2Fexodus.desync.com%3A6969","seeders":1,"leechers":0,"uploader":"Team_BDU","files":1,"time":1282170622,"description":"Format                           : Matroska\nFile size                        : 799 MiB\nDuration                         : 1h 14mn\nOverall bit rate                 : 1 497 Kbps\nCodec ID                         : XVID\nCodec ID/Hint                    : XviD\nDuration                         : 1h 14mn\nBit rate                         : 827 Kbps\nWidth                            : 640 pixels\nHeight                           : 352 pixels\nDisplay aspect ratio             : 16:9\nFrame rate                       : 24.975 fps\n\nAudio #1\nID                               : 2\nFormat                           : MPEG Audio\nFormat version                   : Version 1\nFormat profile                   : Layer 2\nCodec ID                         : A_MPEG/L2\nCodec ID/Hint                    : MP2\nDuration                         : 1h 14mn\nBit rate mode                    : Constant\nBit rate                         : 192 Kbps\nChannel(s)                       : 2 channels\nSampling rate                    : 48.0 KHz\nVideo delay                      : 500ms\nStream size                      : 102 MiB (13%)\nTitle                            : amit6688\nLanguage                         : Hindi\n\nAudio #2\nID                               : 3\nFormat                           : AC-3\nFormat/Info                      : Audio Coding 3\nMode extension                   : CM (complete main)\nCodec ID                         : A_AC3\nDuration                         : 1h 14mn\nBit rate mode                    : Constant\nBit rate                         : 448 Kbps\nChannel(s)                       : 6 channels\nChannel positions                : Front: L C R, Side: L R, LFE\nSampling rate                    : 48.0 KHz\nStream size                      : 239 MiB (30%)\nTitle                            : English\nLanguage                         : English  \n","torrent":{"xt":"urn:btih:ca50783297e21189f8fb15ef12c2498833223d44","amp;dn":"Barbie+Fairytopia+-+Magic+of+the+Rainbow+%282007%29DVDRip.Dual+Audio","amp;tr":["udp%3A%2F%2Ftracker.openbittorrent.com%3A80","udp%3A%2F%2Fopen.demonii.com%3A1337","udp%3A%2F%2Ftracker.coppersurfer.tk%3A6969","udp%3A%2F%2Fexodus.desync.com%3A6969"],"infoHash":"ca50783297e21189f8fb15ef12c2498833223d44","infoHashBuffer":{"type":"Buffer","data":[202,80,120,50,151,226,17,137,248,251,21,239,18,194,73,136,51,34,61,68]},"announce":[],"urlList":[]}}